<?xml version="1.0" encoding="UTF-8"?><svg id="a" xmlns="http://www.w3.org/2000/svg" width="5443.99" height="5541.64" viewBox="0 0 5443.99 5541.64"><polygon points="4596.75 1023.02 5218.91 179.55 3967.98 391.18 3220.77 1051.57 4596.75 1023.02" fill="#84a6a5"/><polygon points="1825.91 790.62 1974.08 62.29 1109.61 755.23 1825.91 790.62" fill="#84a6a5"/><polygon points="1771.41 1831.57 1827.8 1908.96 3098.31 3652.76 3006.54 1207.52 1771.41 1831.57" fill="#84a6a5"/><polygon points="3193.63 3058.68 3221.94 3809.43 4682.15 4519.12 3743.13 2622.67 3193.63 3058.68" fill="#84a6a5"/><polygon points="3122.85 1171.19 3188.21 2912.63 5443.99 1123.06 3122.85 1171.19" fill="#84a6a5"/><path d="M1764.57,1703.22l1230.88-621.93-142.98-727.63L2106.67,0c-114.9,568.13-229.33,1134.62-342.11,1703.22Z" fill="#84a6a5"/><text transform="translate(0 5540.0186)" font-family="Arial-BoldMT, Arial" font-size="1.18" font-weight="700" isolation="isolate"><tspan x="0" y="0">Created by</tspan><tspan x="6.1" y="0" letter-spacing="-.04em"> </tspan><tspan x="6.38" y="0">Andhika Pramanto</tspan></text><text transform="translate(0 5541.1983)" font-family="Arial-BoldMT, Arial" font-size="1.18" font-weight="700" isolation="isolate"><tspan x="0" y="0">from the Noun Project</tspan></text></svg>